<svg width="16" height="16" viewBox="0 0 16 16" fill="none" xmlns="http://www.w3.org/2000/svg">
<path d="M9.09091 9.09091V10.5455C9.09091 10.8331 9.17622 11.1144 9.33604 11.3536C9.49587 11.5928 9.72304 11.7792 9.98882 11.8893C10.2546 11.9994 10.5471 12.0282 10.8292 11.9721C11.1114 11.9159 11.3706 11.7774 11.574 11.574C11.7774 11.3706 11.9159 11.1114 11.9721 10.8292C12.0282 10.5471 11.9994 10.2546 11.8893 9.98882C11.7792 9.72304 11.5928 9.49587 11.3536 9.33604C11.1144 9.17622 10.8331 9.09091 10.5455 9.09091H9.09091ZM9.09091 9.09091V6.90909M9.09091 9.09091H6.90909M9.09091 6.90909V5.45455C9.09091 5.16686 9.17622 4.88564 9.33604 4.64644C9.49587 4.40725 9.72304 4.22081 9.98882 4.11072C10.2546 4.00063 10.5471 3.97183 10.8292 4.02795C11.1114 4.08407 11.3706 4.22261 11.574 4.42603C11.7774 4.62945 11.9159 4.88862 11.9721 5.17078C12.0282 5.45293 11.9994 5.74539 11.8893 6.01118C11.7792 6.27696 11.5928 6.50413 11.3536 6.66396C11.1144 6.82378 10.8331 6.90909 10.5455 6.90909H9.09091ZM9.09091 6.90909H6.90909M6.90909 9.09091V6.90909M6.90909 9.09091V10.5455C6.90909 10.8331 6.82378 11.1144 6.66396 11.3536C6.50413 11.5928 6.27696 11.7792 6.01118 11.8893C5.74539 11.9994 5.45293 12.0282 5.17078 11.9721C4.88862 11.9159 4.62945 11.7774 4.42603 11.574C4.22261 11.3706 4.08407 11.1114 4.02795 10.8292C3.97183 10.5471 4.00063 10.2546 4.11072 9.98882C4.22081 9.72304 4.40725 9.49587 4.64644 9.33604C4.88564 9.17622 5.16686 9.09091 5.45455 9.09091H6.90909ZM6.90909 6.90909V5.45455C6.90909 5.16697 6.82385 4.88585 6.66413 4.64671C6.50442 4.40757 6.2774 4.22113 6.01176 4.11097C5.74613 4.0008 5.4538 3.97185 5.17171 4.02777C4.88963 4.08368 4.63045 4.22196 4.42693 4.42513C4.2234 4.6283 4.08467 4.88723 4.02826 5.16922C3.97185 5.45121 4.00029 5.74359 4.10999 6.00941C4.21969 6.27524 4.40573 6.50259 4.64459 6.66272C4.88346 6.82285 5.16443 6.90859 5.452 6.90909M6.90909 6.90909H5.452M5.45455 6.90909H5.452" stroke="white" stroke-width="0.7"/>
<rect x="0.35" y="0.35" width="15.3" height="15.3" rx="2.65" stroke="white" stroke-width="0.7"/>
</svg>
