<svg width="14" height="14" viewBox="0 0 14 14" fill="none" xmlns="http://www.w3.org/2000/svg">
<path d="M4.33104 6.37591L8.01616 10.061C8.28988 10.3262 8.65691 10.4732 9.03804 10.4702C9.41916 10.4672 9.78382 10.3144 10.0533 10.0449C10.3228 9.77542 10.4756 9.41076 10.4786 9.02964C10.4816 8.64851 10.3346 8.28148 10.0694 8.00776L5.24252 3.1742C5.015 2.94109 4.74346 2.75545 4.44365 2.62806C4.14385 2.50067 3.82174 2.43405 3.496 2.43208C3.17026 2.4301 2.84736 2.4928 2.54603 2.61655C2.2447 2.74029 1.97094 2.92262 1.7406 3.15296C1.51026 3.3833 1.32793 3.65706 1.20419 3.95839C1.08044 4.25972 1.01774 4.58262 1.01972 4.90836C1.02169 5.2341 1.08831 5.55621 1.2157 5.85601C1.34309 6.15582 1.52872 6.42736 1.76184 6.65488L6.6246 11.5176C6.94416 11.8466 7.32593 12.1087 7.74771 12.2888C8.16949 12.4689 8.62286 12.5634 9.08146 12.5667C9.54007 12.57 9.99476 12.4821 10.4191 12.3082C10.8434 12.1342 11.229 11.8776 11.5533 11.5533C11.8775 11.229 12.1341 10.8435 12.3081 10.4192C12.4821 9.99481 12.57 9.54012 12.5666 9.08152C12.5633 8.62291 12.4689 8.16954 12.2888 7.74776C12.1087 7.32599 11.8465 6.94422 11.5176 6.62465L6.97351 2.08058" stroke="white" stroke-miterlimit="10" stroke-linecap="round"/>
</svg>
