<svg width="24" height="24" viewBox="0 0 24 24" fill="none" xmlns="http://www.w3.org/2000/svg">
<path d="M12 2C17.5228 2 22 6.47715 22 12C22 17.5228 17.5228 22 12 22C6.47715 22 2 17.5228 2 12C2 11.4981 2.03696 11.0051 2.10831 10.5231C2.19793 9.9176 1.75479 9.33333 1.14277 9.33333C0.648307 9.33333 0.214667 9.67493 0.139613 10.1637C0.0476801 10.7624 0 11.3756 0 12C0 18.6275 5.37259 24 12 24C18.6275 24 24 18.6275 24 12C24 5.37259 18.6275 0 12 0C8.92659 0 6.12303 1.15541 4 3.05557V1.66667C4 1.11439 3.55228 0.666667 3 0.666667C2.44772 0.666667 2 1.11439 2 1.66667V5.66667C2 6.21895 2.44772 6.66667 3 6.66667H7C7.55228 6.66667 8 6.21895 8 5.66667C8 5.11439 7.55228 4.66667 7 4.66667H5.20124C6.98543 3.01177 9.37453 2 12 2ZM12.6667 6.33333C12.6667 5.78105 12.2189 5.33333 11.6667 5.33333C11.1144 5.33333 10.6667 5.78105 10.6667 6.33333V12.3333C10.6667 12.8856 11.1144 13.3333 11.6667 13.3333H15.6667C16.2189 13.3333 16.6667 12.8856 16.6667 12.3333C16.6667 11.7811 16.2189 11.3333 15.6667 11.3333H12.6667V6.33333Z" fill="white"/>
</svg>
