<svg width="12" height="12" viewBox="0 0 12 12" fill="none" xmlns="http://www.w3.org/2000/svg">
<path d="M1 4.66667C1 2.64162 2.64162 1 4.66667 1C6.69174 1 8.33334 2.64162 8.33334 4.66667C8.33334 6.69174 6.69174 8.33334 4.66667 8.33334C2.64162 8.33334 1 6.69174 1 4.66667ZM4.66667 0C2.08934 0 0 2.08934 0 4.66667C0 7.24401 2.08934 9.33335 4.66667 9.33335C5.77521 9.33335 6.79348 8.94681 7.59408 8.30121L11.1465 11.8535C11.3417 12.0488 11.6583 12.0488 11.8535 11.8535C12.0488 11.6583 12.0488 11.3417 11.8535 11.1465L8.30121 7.59408C8.94681 6.79348 9.33335 5.77521 9.33335 4.66667C9.33335 2.08934 7.24401 0 4.66667 0Z" fill="white"/>
</svg>
