<svg width="30" height="30" viewBox="0 0 30 30" fill="none" xmlns="http://www.w3.org/2000/svg">
<path d="M15.8024 11.5685L11.0644 16.3065C10.7234 16.6584 10.5344 17.1303 10.5383 17.6203C10.5422 18.1104 10.7386 18.5792 11.0851 18.9257C11.4316 19.2722 11.9004 19.4686 12.3904 19.4725C12.8804 19.4763 13.3523 19.2874 13.7043 18.9464L19.9188 12.7404C20.2186 12.4479 20.4572 12.0987 20.621 11.7133C20.7848 11.3278 20.8705 10.9137 20.873 10.4949C20.8756 10.076 20.7949 9.66089 20.6358 9.27347C20.4767 8.88605 20.2423 8.53406 19.9462 8.23791C19.65 7.94176 19.298 7.70734 18.9106 7.54824C18.5232 7.38914 18.108 7.30852 17.6892 7.31106C17.2704 7.3136 16.8563 7.39925 16.4708 7.56304C16.0853 7.72683 15.7362 7.9655 15.4437 8.26522L9.19157 14.5173C8.76863 14.9282 8.43159 15.4191 8.20004 15.9613C7.9685 16.5036 7.84706 17.0865 7.84279 17.6762C7.83852 18.2658 7.95152 18.8504 8.17519 19.396C8.39887 19.9416 8.72877 20.4372 9.14572 20.8542C9.56266 21.2711 10.0583 21.601 10.6039 21.8247C11.1495 22.0484 11.7341 22.1614 12.3237 22.1571C12.9134 22.1528 13.4963 22.0314 14.0386 21.7999C14.5808 21.5683 15.0717 21.2313 15.4826 20.8083L21.3249 14.9659" stroke="#646464" stroke-width="1.4" stroke-miterlimit="10" stroke-linecap="round"/>
</svg>
